# xmcd CD database file
#
# Track frame offsets:
#	150
#	10524
#	56103
#	61353
#	66615
#	74326
#	99896
#	122285
#	138870
#	187503
#	198161
#	211425
#	228699
#	252344
#
# Disc length: 3629 seconds
#
# Revision: 2
# Processed by: cddbd v1.5.2PL0 Copyright (c) Steve Scherf et al.
# Submitted via: CDex 1.70beta3
#
DISCID=c00e2b0e
DTITLE=Walt Disney - 東京ディズニーランド ミュージック・アルバム (2008)
DYEAR=2008
DGENRE=Soundtrack
TTITLE0=東京ディズニーランド・バンド グッド・デイ・メドレー
TTITLE1=カリブの海賊 "ライドスルー・ミックス"
TTITLE2=ホーンテッドマンション
TTITLE3=ピーターパン空の旅
TTITLE4=イッツ・ア・スモール・ワールド
TTITLE5=ピノキオの冒険旅行
TTITLE6=カントリーベア・シアター
TTITLE7=スター・ツアーズ
TTITLE8=スプラッシュ・マウンテン "ライドスルー・ミックス"
TTITLE9=バイシクル・ピアノ
TTITLE10=トゥーンタウン
TTITLE11=ロジャーラビットのカートゥーンスピン・ライドスルー
TTITLE12=プーさんのハニーハント
TTITLE13=ドリームス(花火)
EXTD=YEAR: 2008
EXTT0=
EXTT1=
EXTT2=
EXTT3=
EXTT4=
EXTT5=
EXTT6=
EXTT7=
EXTT8=
EXTT9=
EXTT10=
EXTT11=
EXTT12=
EXTT13=
PLAYORDER=
